<svg id="Layer_2" data-name="Layer 2" xmlns="http://www.w3.org/2000/svg" viewBox="0 0 59.87 47.38"><defs><style>.cls-1{fill:#f1a52e;}.cls-2,.cls-3{fill:none;stroke-width:3px;}.cls-2{stroke:#fff;stroke-miterlimit:10;}.cls-3{stroke:#f1a52e;stroke-linecap:round;stroke-linejoin:round;}</style></defs><path class="cls-1" d="M21,18.09v6a2,2,0,0,0,4,0v-6a2,2,0,0,0-4,0Z" transform="translate(-0.61 -16.09)"/><path class="cls-1" d="M2.61,40h6a2,2,0,0,0,0-4h-6a2,2,0,0,0,0,4Z" transform="translate(-0.61 -16.09)"/><path class="cls-1" d="M13.84,29.37a1.93,1.93,0,0,0,0-2.8l-4.2-4.3a2,2,0,0,0-2.8,2.8l4.3,4.3a2,2,0,0,0,1.4.6A1.94,1.94,0,0,0,13.84,29.37Z" transform="translate(-0.61 -16.09)"/><path class="cls-1" d="M35.89,22.27l-4.3,4.3a1.93,1.93,0,0,0,0,2.8,1.93,1.93,0,0,0,2.8,0l4.3-4.3a1.93,1.93,0,0,0,0-2.8A2.13,2.13,0,0,0,35.89,22.27Z" transform="translate(-0.61 -16.09)"/><path class="cls-1" d="M7.69,54a1.93,1.93,0,0,0,2.8,0l4.3-4.3a2,2,0,1,0-2.8-2.8l-4.3,4.3A1.93,1.93,0,0,0,7.69,54Z" transform="translate(-0.61 -16.09)"/><path class="cls-2" d="M51,62H25a6,6,0,1,1,0-12,1.27,1.27,0,0,1,.6.1l2.3.3.1-2.1a11,11,0,0,1,21.2-3.5l.5,1.2H51a8,8,0,1,1,0,16Z" transform="translate(-0.61 -16.09)"/><path class="cls-3" d="M23.93,46c-.35,0-.81,0-1.31,0a8,8,0,1,1,7.8-9.6" transform="translate(-0.61 -16.09)"/></svg>